<svg width="105" height="105" viewBox="0 0 105 105" fill="none" xmlns="http://www.w3.org/2000/svg">
<path d="M37.6481 38.2609C37.6481 38.2609 36.1634 43.6077 32.9818 46.5307L34.8342 48.2702C34.9615 48.389 35.0133 48.5743 34.9615 48.7406C34.7446 49.4346 33.9669 51.1645 31.6102 51.1645C29.4326 51.1645 28.8058 49.5343 28.6314 48.6836C28.5748 48.4127 28.8655 47.6089 29.3604 47.6089C29.5914 47.5899 30.1804 47.9653 30.4602 48.4174C30.798 48.9634 30.9315 49.8528 32.1758 49.4725C33.9339 48.9355 27.8725 45.6704 27.8725 45.6704C27.8725 45.6704 26.2558 46.754 24.0217 47.5382C23.9839 47.4336 23.9462 47.3338 23.9086 47.2245C23.5221 46.1694 22.9281 45.1476 22.174 44.3158C21.3209 43.3653 20.2698 42.7474 19.0538 42.4148C19.2894 42.4813 19.5675 42.7237 19.7655 42.8663C20.0577 43.0754 20.3217 43.3225 20.5621 43.5887C21.0475 44.1257 21.4246 44.7578 21.698 45.428C22.1693 46.5972 22.4239 48.0325 22.306 49.2967C22.1127 51.3927 21.3869 55.6036 18.6531 58.498C14.8824 62.4903 15.0238 63.3933 16.5792 68.1935C17.6869 71.606 16.862 73.5546 16.2917 74.3958C16.1079 74.6667 15.7166 74.662 15.5375 74.391L14.9484 73.4975C14.8824 73.393 14.8588 73.2694 14.8824 73.1506C15.0332 72.4044 15.316 69.3056 11.451 63.5406C11.3379 63.3742 11.3474 63.1509 11.4746 62.994C12.29 61.9865 15.1275 58.2223 15.4527 54.0352C15.8298 49.1399 11.4934 49.4725 10.8807 45.1951C10.8807 45.1951 6.69519 48.4602 7.0487 57.229C7.39744 65.8314 6.65277 70.7315 1.48213 72.8654C1.30302 72.9367 1.10034 72.8892 0.973079 72.7466C0.79397 72.547 0.826963 72.2333 1.03907 72.0717C2.31168 71.1212 5.88915 67.3713 3.655 56.2309C0.968363 42.8282 13.7652 35.6279 20.2697 35.6279C26.7742 35.6279 32.4303 40.9747 33.7736 35.6279C33.7736 35.6279 30.7665 34.3732 30.5968 30.4759C30.5874 30.205 30.8042 29.9864 31.0729 30.0007C32.256 30.0482 35.2867 30.4759 36.2482 33.4939L39.1752 34.0167C39.3355 34.0452 39.4675 34.1545 39.524 34.3066L40.0048 35.5994C40.0472 35.7087 40.1273 35.799 40.231 35.8513L42.2719 36.8541C42.5217 36.9776 42.6066 37.2913 42.451 37.5195C42.0268 38.1564 40.8391 39.1117 37.6481 38.2609Z" fill="white"/>
<path d="M54.4638 53.2399C53.2265 53.2399 52.1438 53.0052 51.2158 52.5359C50.2878 52.0666 49.5732 51.3946 49.0718 50.5199C48.5705 49.6452 48.3198 48.6106 48.3198 47.4159C48.3198 46.2212 48.5705 45.1866 49.0718 44.3119C49.5732 43.4266 50.2878 42.7492 51.2158 42.2799C52.1438 41.8106 53.2265 41.5759 54.4638 41.5759C55.2638 41.5759 55.9785 41.6506 56.6078 41.7999C57.2372 41.9492 57.8238 42.1892 58.3678 42.5199V45.5759C57.8985 45.2132 57.3705 44.9519 56.7838 44.7919C56.1972 44.6319 55.5198 44.5519 54.7518 44.5519C53.7492 44.5519 52.9865 44.7919 52.4638 45.2719C51.9518 45.7519 51.6958 46.4666 51.6958 47.4159C51.6958 48.3652 51.9625 49.0852 52.4958 49.5759C53.0292 50.0559 53.7812 50.2959 54.7518 50.2959C55.5092 50.2959 56.1865 50.2106 56.7838 50.0399C57.3918 49.8692 57.9625 49.5972 58.4958 49.2239V52.2639C57.4612 52.9146 56.1172 53.2399 54.4638 53.2399Z" fill="white"/>
<path d="M62.146 53.2399C61.1646 53.2399 60.3753 53.0159 59.778 52.5679C59.1913 52.1092 58.898 51.4586 58.898 50.6159C58.898 49.7519 59.186 49.0959 59.762 48.6479C60.338 48.1892 61.1753 47.9599 62.274 47.9599C62.6686 47.9599 63.0686 48.0026 63.474 48.0879C63.8793 48.1732 64.2206 48.2799 64.498 48.4079V48.2639C64.498 47.9119 64.322 47.6452 63.97 47.4639C63.6286 47.2826 63.1486 47.1919 62.53 47.1919C61.602 47.1919 60.7486 47.3786 59.97 47.7519V45.6399C60.322 45.4692 60.7806 45.3359 61.346 45.2399C61.9113 45.1332 62.514 45.0799 63.154 45.0799C64.6366 45.0799 65.7673 45.3626 66.546 45.9279C67.3246 46.4932 67.714 47.2932 67.714 48.3279V52.9999H64.69V52.3919C64.434 52.6479 64.082 52.8506 63.634 52.9999C63.186 53.1599 62.69 53.2399 62.146 53.2399ZM63.138 51.3839C63.426 51.3839 63.6926 51.3306 63.938 51.2239C64.1833 51.1172 64.37 50.9786 64.498 50.8079V50.2159C64.1033 49.9599 63.6553 49.8319 63.154 49.8319C62.8553 49.8319 62.6206 49.9012 62.45 50.0399C62.29 50.1786 62.21 50.3706 62.21 50.6159C62.21 50.8506 62.29 51.0372 62.45 51.1759C62.61 51.3146 62.8393 51.3839 63.138 51.3839Z" fill="white"/>
<path d="M72.1427 53.2399C71.5027 53.2399 70.8307 53.1812 70.1267 53.0639C69.4334 52.9466 68.884 52.7759 68.4787 52.5519V50.2959C68.916 50.5519 69.4494 50.7706 70.0787 50.9519C70.7187 51.1226 71.2947 51.2079 71.8067 51.2079C72.116 51.2079 72.34 51.1919 72.4787 51.1599C72.6174 51.1172 72.6867 51.0372 72.6867 50.9199C72.6867 50.8132 72.6174 50.7332 72.4787 50.6799C72.3507 50.6266 72.1054 50.5519 71.7427 50.4559L71.0067 50.2479C70.356 50.0559 69.8387 49.8532 69.4547 49.6399C69.0814 49.4159 68.804 49.1492 68.6227 48.8399C68.452 48.5199 68.3667 48.1199 68.3667 47.6399C68.3667 46.7759 68.708 46.1359 69.3907 45.7199C70.0734 45.2932 71.0067 45.0799 72.1907 45.0799C72.756 45.0799 73.364 45.1439 74.0147 45.2719C74.676 45.3892 75.1667 45.5492 75.4867 45.7519V47.9759C75.156 47.7626 74.7134 47.5812 74.1587 47.4319C73.604 47.2719 73.0974 47.1919 72.6387 47.1919C72.0094 47.1919 71.6947 47.2986 71.6947 47.5119C71.6947 47.6079 71.7694 47.6879 71.9187 47.7519C72.0787 47.8159 72.3507 47.8906 72.7347 47.9759L73.4067 48.1359C74.1 48.3172 74.6334 48.5252 75.0067 48.7599C75.38 48.9946 75.6414 49.2719 75.7907 49.5919C75.94 49.9012 76.0147 50.2906 76.0147 50.7599C76.0147 51.5172 75.6787 52.1199 75.0067 52.5679C74.3454 53.0159 73.3907 53.2399 72.1427 53.2399Z" fill="white"/>
<path d="M78.648 44.4559C78.168 44.4559 77.768 44.3012 77.448 43.9919C77.128 43.6826 76.968 43.2879 76.968 42.8079C76.968 42.3386 77.128 41.9492 77.448 41.6399C77.768 41.3199 78.168 41.1599 78.648 41.1599C79.1173 41.1599 79.512 41.3199 79.832 41.6399C80.1626 41.9599 80.328 42.3492 80.328 42.8079C80.328 43.2772 80.1626 43.6719 79.832 43.9919C79.512 44.3012 79.1173 44.4559 78.648 44.4559ZM77.048 45.3199H80.248V52.9999H77.048V45.3199Z" fill="white"/>
<path d="M81.6086 45.3199H84.6966V46.0719C85.0272 45.7519 85.4166 45.5066 85.8646 45.3359C86.3126 45.1652 86.7819 45.0799 87.2726 45.0799C88.3712 45.0799 89.1766 45.3626 89.6886 45.9279C90.2112 46.4826 90.4726 47.2506 90.4726 48.2319V52.9999H87.2566V48.6799C87.2566 48.3172 87.1766 48.0452 87.0166 47.8639C86.8672 47.6719 86.6219 47.5759 86.2806 47.5759C85.6406 47.5759 85.1499 47.8639 84.8086 48.4399V52.9999H81.6086V45.3199Z" fill="white"/>
<path d="M95.9647 53.2399C94.9834 53.2399 94.1247 53.0692 93.3887 52.7279C92.6634 52.3759 92.1034 51.8906 91.7087 51.2719C91.314 50.6532 91.1167 49.9492 91.1167 49.1599C91.1167 48.3812 91.314 47.6826 91.7087 47.0639C92.1034 46.4452 92.6634 45.9599 93.3887 45.6079C94.1247 45.2559 94.9834 45.0799 95.9647 45.0799C96.946 45.0799 97.8047 45.2559 98.5407 45.6079C99.2767 45.9599 99.842 46.4452 100.237 47.0639C100.631 47.6826 100.829 48.3812 100.829 49.1599C100.829 49.9492 100.631 50.6532 100.237 51.2719C99.842 51.8906 99.2767 52.3759 98.5407 52.7279C97.8047 53.0692 96.946 53.2399 95.9647 53.2399ZM95.9647 50.7599C96.4447 50.7599 96.8287 50.6159 97.1167 50.3279C97.4047 50.0399 97.5487 49.6506 97.5487 49.1599C97.5487 48.6692 97.4047 48.2852 97.1167 48.0079C96.8287 47.7199 96.4447 47.5759 95.9647 47.5759C95.4847 47.5759 95.1007 47.7199 94.8127 48.0079C94.5354 48.2852 94.3967 48.6692 94.3967 49.1599C94.3967 49.6506 94.5354 50.0399 94.8127 50.3279C95.1007 50.6159 95.4847 50.7599 95.9647 50.7599Z" fill="white"/>
<path d="M48.6398 56.8159H54.4798C55.5678 56.8159 56.4372 57.0879 57.0878 57.6319C57.7492 58.1652 58.0798 58.9332 58.0798 59.9359C58.0798 60.3839 57.9785 60.8052 57.7758 61.1999C57.5838 61.5946 57.3012 61.9146 56.9278 62.1599C57.4505 62.3946 57.8292 62.7039 58.0638 63.0879C58.3092 63.4719 58.4318 63.9732 58.4318 64.5919C58.4318 65.2852 58.2665 65.8932 57.9358 66.4159C57.6052 66.9279 57.1572 67.3226 56.5918 67.5999C56.0372 67.8666 55.4185 67.9999 54.7358 67.9999H48.6398V56.8159ZM53.6158 61.1519C53.9785 61.1519 54.2505 61.0719 54.4318 60.9119C54.6238 60.7519 54.7198 60.4959 54.7198 60.1439C54.7198 59.7812 54.6292 59.5306 54.4478 59.3919C54.2665 59.2426 53.9838 59.1679 53.5998 59.1679H51.9518V61.1519H53.6158ZM53.8078 65.6479C54.2452 65.6479 54.5652 65.5679 54.7678 65.4079C54.9705 65.2479 55.0718 64.9706 55.0718 64.5759C55.0718 64.1919 54.9652 63.9092 54.7518 63.7279C54.5492 63.5466 54.2238 63.4559 53.7758 63.4559H51.9518V65.6479H53.8078Z" fill="white"/>
<path d="M63.9818 68.2399C62.4352 68.2399 61.2298 67.8879 60.3658 67.1839C59.5018 66.4799 59.0698 65.4826 59.0698 64.1919C59.0698 62.9226 59.4592 61.9199 60.2378 61.1839C61.0165 60.4479 62.1365 60.0799 63.5978 60.0799C64.5365 60.0799 65.3365 60.2559 65.9978 60.6079C66.6698 60.9492 67.1765 61.4239 67.5178 62.0319C67.8592 62.6399 68.0298 63.3226 68.0298 64.0799V65.1199H62.1098C62.3658 65.8026 63.1392 66.1439 64.4298 66.1439C64.9418 66.1439 65.4645 66.1066 65.9978 66.0319C66.5418 65.9466 67.0005 65.8292 67.3738 65.6799V67.6799C66.9685 67.8506 66.4618 67.9839 65.8538 68.0799C65.2458 68.1866 64.6218 68.2399 63.9818 68.2399ZM65.0058 63.2639C64.9525 62.9226 64.8032 62.6612 64.5578 62.4799C64.3125 62.2879 63.9765 62.1919 63.5498 62.1919C63.1232 62.1919 62.7872 62.2879 62.5418 62.4799C62.3072 62.6719 62.1632 62.9332 62.1098 63.2639H65.0058Z" fill="white"/>
<path d="M72.4396 68.2399C71.7996 68.2399 71.1276 68.1812 70.4236 68.0639C69.7302 67.9466 69.1809 67.7759 68.7756 67.5519V65.2959C69.2129 65.5519 69.7462 65.7706 70.3756 65.9519C71.0156 66.1226 71.5916 66.2079 72.1036 66.2079C72.4129 66.2079 72.6369 66.1919 72.7756 66.1599C72.9142 66.1172 72.9836 66.0372 72.9836 65.9199C72.9836 65.8132 72.9142 65.7332 72.7756 65.6799C72.6476 65.6266 72.4022 65.5519 72.0396 65.4559L71.3036 65.2479C70.6529 65.0559 70.1356 64.8532 69.7516 64.6399C69.3782 64.4159 69.1009 64.1492 68.9196 63.8399C68.7489 63.5199 68.6636 63.1199 68.6636 62.6399C68.6636 61.7759 69.0049 61.1359 69.6876 60.7199C70.3702 60.2932 71.3036 60.0799 72.4876 60.0799C73.0529 60.0799 73.6609 60.1439 74.3116 60.2719C74.9729 60.3892 75.4636 60.5492 75.7836 60.7519V62.9759C75.4529 62.7626 75.0102 62.5812 74.4556 62.4319C73.9009 62.2719 73.3942 62.1919 72.9356 62.1919C72.3062 62.1919 71.9916 62.2986 71.9916 62.5119C71.9916 62.6079 72.0662 62.6879 72.2156 62.7519C72.3756 62.8159 72.6476 62.8906 73.0316 62.9759L73.7036 63.1359C74.3969 63.3172 74.9302 63.5252 75.3036 63.7599C75.6769 63.9946 75.9382 64.2719 76.0876 64.5919C76.2369 64.9012 76.3116 65.2906 76.3116 65.7599C76.3116 66.5172 75.9756 67.1199 75.3036 67.5679C74.6422 68.0159 73.6876 68.2399 72.4396 68.2399Z" fill="white"/>
<path d="M80.4705 68.2399C79.4785 68.2399 78.7265 67.9626 78.2145 67.4079C77.7025 66.8532 77.4465 66.1012 77.4465 65.1519V62.4799H76.3905V60.3199H77.4465V58.0159H80.6625V60.3199H82.3745V62.4799H80.6625V64.6879C80.6625 65.0719 80.7318 65.3492 80.8705 65.5199C81.0198 65.6799 81.2651 65.7599 81.6065 65.7599C81.9905 65.7599 82.3585 65.6586 82.7105 65.4559V67.8239C82.4011 67.9626 82.0758 68.0639 81.7345 68.1279C81.4038 68.2026 80.9825 68.2399 80.4705 68.2399Z" fill="white"/>
<path d="M87.503 56.8159H90.687L95.151 67.9999H91.759L90.927 65.8719H87.263L86.415 67.9999H83.023L87.503 56.8159ZM90.159 63.3599L89.087 60.2239L88.015 63.3599H90.159Z" fill="white"/>
<path d="M98.6661 68.2399C97.5994 68.2399 96.7994 67.9412 96.2661 67.3439C95.7327 66.7466 95.4661 65.9572 95.4661 64.9759V60.3199H98.6661V64.5919C98.6661 65.3706 99.0074 65.7599 99.6901 65.7599C99.9994 65.7599 100.277 65.6852 100.522 65.5359C100.767 65.3866 100.965 65.1732 101.114 64.8959V60.3199H104.33V67.9999H101.226V67.2639C100.906 67.5839 100.522 67.8292 100.074 67.9999C99.6261 68.1599 99.1568 68.2399 98.6661 68.2399Z" fill="white"/>
</svg>
